<?xml version="1.0" encoding="utf-8"?>
<!-- Generator: Adobe Illustrator 21.1.0, SVG Export Plug-In . SVG Version: 6.00 Build 0)  -->
<svg version="1.1" id="Layer_1" xmlns="http://www.w3.org/2000/svg" xmlns:xlink="http://www.w3.org/1999/xlink" x="0px" y="0px"
	 viewBox="0 0 595.3 595.3" style="enable-background:new 0 0 595.3 595.3;" xml:space="preserve">
<style type="text/css">
	.st0{fill:#302D43;}
	.st1{fill:#F4F6EC;}
</style>
<path class="st0" d="M297.6,581.1c-75.7,0-146.9-29.5-200.5-83s-83-124.7-83-200.4s29.5-146.9,83-200.4s124.8-83,200.5-83
	s146.9,29.5,200.5,83s83,124.7,83,200.5s-29.5,146.9-83,200.4S373.3,581.1,297.6,581.1z M297.6,27.5c-149,0-270.2,121.2-270.2,270.2
	s121.2,270.2,270.2,270.2s270.2-121.2,270.2-270.2S446.6,27.5,297.6,27.5L297.6,27.5z"/>
<path class="st0" d="M155.9,192.8c-0.3,0-0.5-0.1-0.7-0.3l-34.1-30.7c-0.2-0.2-0.3-0.5-0.3-0.8c0-0.3,0.1-0.6,0.3-0.8l23.4-26
	c0.2-0.2,0.5-0.3,0.8-0.3c0.3,0,0.6,0.1,0.8,0.3l6.8,6.1c0.4,0.4,0.5,1.1,0.1,1.6L137,159.5l5.6,5.1l13.9-15.4
	c0.4-0.4,1.1-0.5,1.5-0.1c0,0,0,0,0.1,0l6.8,6.1c0.2,0.2,0.3,0.5,0.4,0.8c0,0.3-0.1,0.6-0.3,0.8l-13.9,15.4l12.4,11.1
	c0.5,0.4,0.5,1.1,0.1,1.6c0,0,0,0,0,0l-6.8,7.5C156.5,192.7,156.2,192.8,155.9,192.8z"/>
<path class="st0" d="M191.6,155.9c-0.2,0-0.4,0-0.5-0.1c-0.3-0.2-0.5-0.5-0.6-0.9l-5-50c0-0.4,0.2-0.9,0.6-1.1l8.2-4.5
	c0.4-0.2,0.9-0.2,1.2,0.1l39.5,31c0.3,0.2,0.5,0.6,0.4,1c0,0.4-0.3,0.7-0.6,0.9l-9.3,5.1c-0.4,0.2-0.9,0.2-1.2-0.1l-8.1-6.5
	l-15.7,8.6l1.2,10.3c0.1,0.5-0.2,0.9-0.6,1.1l-9,4.9C192,155.9,191.8,155.9,191.6,155.9z M197.9,115.9l1.3,11.6l7.8-4.3L197.9,115.9
	z"/>
<path class="st0" d="M252.7,127.4c-0.2,0-0.5-0.1-0.7-0.2c-0.2-0.2-0.4-0.4-0.5-0.7l-6.9-45.4c-0.1-0.6,0.3-1.2,0.9-1.3l21.1-3.2
	c1.3-0.2,2.6-0.3,3.9-0.3c7.8,0,13.1,4,14.1,10.7v0.1c0.6,4.1-0.4,7.5-3.3,10.3c5.4,1.7,8.2,4.9,9,10.2v0.1c0.7,4.3-0.6,8.1-3.6,11
	c-2.8,2.7-7,4.5-12.5,5.3L252.7,127.4L252.7,127.4z M260.8,107l1.2,7.8l10.8-1.6c6-0.9,5.5-3.8,5.4-4.8v-0.1c-0.2-1.3-0.9-3-4.6-3
	c-0.8,0-1.5,0.1-2.3,0.2L260.8,107z M258,89.1l1.1,7.4l8.1-1.2c2.1-0.3,3.6-0.9,4.5-1.7c0.9-0.7,1.3-1.8,1-2.9v-0.1
	c-0.3-1.9-1.7-2.9-4.2-2.9c-0.6,0-1.2,0.1-1.8,0.1L258,89.1z"/>
<path class="st0" d="M344.7,128c-0.1,0-0.1,0-0.2,0l-32.5-5.4c-0.3-0.1-0.6-0.2-0.7-0.5c-0.2-0.2-0.2-0.5-0.2-0.8l7.5-45.3
	c0.1-0.6,0.7-1,1.3-0.9l10,1.7c0.3,0.1,0.5,0.2,0.7,0.4c0.2,0.2,0.2,0.5,0.2,0.8l-5.8,35.1l21.4,3.6c0.6,0.1,1,0.7,0.9,1.3l-1.5,9.1
	c-0.1,0.3-0.2,0.5-0.5,0.7C345.1,127.9,344.9,128,344.7,128z"/>
<path class="st0" d="M402.9,155.4c-0.2,0-0.4,0-0.6-0.1l-9.3-5c-0.4-0.2-0.6-0.6-0.6-1.1l1.1-10.3l-15.7-8.5l-8,6.6
	c-0.4,0.3-0.8,0.3-1.2,0.1l-9.1-4.9c-0.3-0.2-0.5-0.5-0.6-0.9c0-0.4,0.1-0.7,0.4-1L398.8,99c0.3-0.3,0.8-0.3,1.2-0.1l8.2,4.5
	c0.4,0.2,0.6,0.6,0.6,1.1l-4.8,50c0,0.4-0.2,0.7-0.6,0.9C403.3,155.4,403.1,155.4,402.9,155.4z M387.2,122.7l7.8,4.2l1.3-11.7
	L387.2,122.7z"/>
<path class="st0" d="M445,192c-4.6,0-9.5-2.7-14.1-7.9l-14.5-16.3c-0.2-0.2-0.3-0.5-0.3-0.8c0-0.3,0.1-0.6,0.4-0.7l34.3-30.5
	c0.5-0.4,1.2-0.4,1.6,0.1l14.2,15.9c3.2,3.6,5,7.4,5.2,11.1c0.2,3.7-1.3,7.3-4.1,9.7l-0.1,0c-3.1,2.7-6.5,3.7-10.4,2.9
	c1.5,5.4,0.3,9.5-3.7,13.1l-0.1,0.1C451,190.8,448.1,192,445,192z M431.9,168.6l7.2,8.1c1.7,1.9,3.3,2.9,4.7,2.9l0,0
	c0.8,0,1.6-0.4,2.2-0.9l0.1-0.1c0.7-0.6,2.9-2.6-1.3-7.3l-7-7.9L431.9,168.6z M445.7,156.3l5.5,6.1c1.8,2,3.4,3,4.8,3
	c0.8,0,1.6-0.3,2.1-0.9l0.1-0.1c2.3-2,0.7-4.6-1-6.5l-5.9-6.6L445.7,156.3z"/>
<path class="st0" d="M138.3,445.9c-5.8,0-11.3-3-15.9-8.8c-8.3-10.4-6.9-21.3,3.8-29.8l20.5-16.3c0.2-0.2,0.5-0.3,0.8-0.2
	c0.3,0,0.5,0.2,0.7,0.4l6.3,7.9c0.2,0.2,0.3,0.5,0.2,0.8c0,0.3-0.2,0.5-0.4,0.7L134,416.7c-5.2,4.2-6.1,8.7-2.5,13.2
	s8.2,4.7,13.2,0.7l20.6-16.3c0.5-0.4,1.2-0.3,1.5,0.2c0,0,0,0,0,0l6.2,7.9c0.4,0.4,0.3,1.1-0.1,1.5c0,0,0,0,0,0l-20.2,16.1
	C147.9,443.9,143,445.9,138.3,445.9z"/>
<path class="st0" d="M173.4,482.9c-0.2,0-0.4-0.1-0.6-0.2l-8.5-5.4c-0.2-0.2-0.4-0.4-0.5-0.7c-0.1-0.3,0-0.6,0.1-0.8l24.5-38.8
	c0.3-0.5,1-0.7,1.5-0.4l15.9,10c9.6,6.1,12.2,15.6,6.7,24.3l-0.1,0.1c-3.3,5.2-8,7.9-13.7,7.9c-3.9,0-8.1-1.4-12.1-3.9l-5.5-3.5
	l-6.8,10.7C174.1,482.8,173.8,483,173.4,482.9z M187.1,462.3l5.8,3.7c1.3,0.9,2.7,1.3,4.3,1.4c1.9,0,3.7-1,4.6-2.6l0.1-0.1
	c2.7-4.3-0.6-7.3-2.9-8.7l-5.7-3.6L187.1,462.3z"/>
<path class="st0" d="M274.4,520.2c-1.5,0-3-0.1-4.5-0.3c-6.6-0.8-12.5-4.2-16.5-9.5c-3.9-5.3-5.5-11.8-4.6-18.3v-0.1
	c1.8-12.6,11.8-21.5,24.4-21.5c1.3,0,2.5,0.1,3.8,0.3c7.8,1.1,13.2,4.1,17.7,9.9c0.4,0.5,0.3,1.1-0.1,1.5l-7.4,6.4
	c-0.2,0.2-0.5,0.3-0.8,0.3c-0.3,0-0.6-0.2-0.8-0.4c-3.2-3.9-6.4-5.8-10.2-6.3c-0.6-0.1-1.1-0.1-1.7-0.1c-6.1,0-11.3,4.8-12.2,11.5
	v0.1c-0.5,3.4,0.2,6.9,2.1,9.8c1.9,2.8,4.8,4.6,8.2,5.1c0.7,0.1,1.5,0.2,2.2,0.2c3.6,0,6.4-1.4,9.7-3.7c0.5-0.3,1.1-0.2,1.5,0.2
	l5.5,7.3c0.3,0.5,0.3,1.1-0.2,1.5C285.3,518.4,280.5,520.2,274.4,520.2z"/>
<path class="st0" d="M324.4,519.8c-0.2,0-0.4-0.1-0.6-0.2c-0.2-0.2-0.4-0.4-0.5-0.7l-8.9-45c-0.1-0.6,0.3-1.2,0.9-1.3l34-6.7
	c0.3-0.1,0.6,0,0.8,0.2c0.2,0.2,0.4,0.4,0.5,0.7l1.7,8.8c0.1,0.6-0.3,1.2-0.8,1.3c0,0,0,0,0,0l-23,4.5l1.4,7l20.2-4
	c0.6-0.1,1.2,0.3,1.3,0.9l1.7,8.8c0.1,0.3,0,0.6-0.2,0.8c-0.2,0.3-0.4,0.4-0.7,0.5l-20.1,4l1.4,7.3l23.3-4.6
	c0.6-0.1,1.2,0.3,1.3,0.9c0,0,0,0,0,0l1.7,8.8c0.1,0.3,0,0.6-0.2,0.8c-0.2,0.2-0.4,0.4-0.7,0.5l-34.3,6.8L324.4,519.8z"/>
<path class="st0" d="M392.6,500.2c-0.4,0-0.8-0.2-1-0.6l-22.9-39.8c-0.3-0.5-0.1-1.2,0.4-1.5c0,0,0,0,0,0l18.4-10.6
	c3.5-2,6.8-3,10-3c4.4-0.1,8.5,2.3,10.6,6.1l0.1,0.1c2,3.6,2.3,7.1,0.7,10.8c5.6-0.4,9.4,1.6,12.1,6.3l0.1,0.1
	c4.3,7.5,1.1,15.2-9,21l-18.9,10.9C393,500.2,392.8,500.2,392.6,500.2z M393.2,478.2l3.9,6.8l9.4-5.4c1.8-1,3-2.1,3.5-3.2
	c0.5-1,0.4-2.2-0.2-3.2l-0.1-0.1c-1.3-2.3-3.8-2.3-7.5-0.2L393.2,478.2z M384.1,462.5l3.7,6.5l7.1-4.1c5.3-3.1,4-5.5,3.5-6.3
	l-0.1-0.1c-1.2-2.1-3.5-2.1-6.6-0.4L384.1,462.5z"/>
<path class="st0" d="M452.4,451.3c-4.8,0-9.7-2.1-14.5-6.2l-20-17c-0.5-0.4-0.5-1.1-0.1-1.6l6.5-7.7c0.2-0.2,0.5-0.3,0.8-0.4
	c0.3,0,0.6,0.1,0.8,0.3l19.8,16.8c5,4.3,9.8,4.3,13.5,0c1.8-2.1,2.6-4.3,2.3-6.5c-0.3-2.2-1.7-4.5-4.2-6.6l-20-17.1
	c-0.5-0.4-0.5-1.1-0.1-1.6l6.6-7.7c0.4-0.5,1.1-0.5,1.6-0.1l19.7,16.8c10.5,9,11.6,20,2.8,30.3C463.3,448.4,457.9,451.3,452.4,451.3
	z"/>
<path class="st0" d="M350.2,294c2.4-1.4,5.1-2.1,7.9-2.1c3.4,0,6.7,1.1,9.4,3c1.8,1.3,4.1,1.4,6,0.3l26.6-15.3
	c1.7-1,2.8-2.8,2.9-4.8v-35.1c0-2-1.1-3.8-2.9-4.8c-2-1.2-99.8-57.5-99.8-57.5c-1.7-1-3.8-1-5.5,0l-30.4,17.6
	c-2.6,1.5-3.6,4.9-2,7.5c0.5,0.8,1.2,1.5,2,2l23,13.3c1,0.6,2.2,0.8,3.4,0.7c12.5-1.5,25.1,1.1,36,7.3l0.2,0.1
	c7.6,4.4,10.2,14.1,5.8,21.8c-1.4,2.4-3.4,4.5-5.9,5.9c0,0-0.1,0.1-0.1,0.1c-18.2,10.4-40.5,10.3-58.6-0.1
	c-5.4-3.2-8.5-9.2-7.8-15.4c0.2-2.2-0.8-4.3-2.7-5.4l-26.5-15.3c-1.7-1-3.8-1-5.5,0l-30.4,17.5c-1.7,1-2.8,2.8-2.9,4.8v115.1
	c0,2,1.1,3.8,2.9,4.8l30.4,17.5c2.6,1.5,6,0.6,7.6-2c0.5-0.8,0.7-1.8,0.7-2.8v-26.5c0-1.2-0.4-2.4-1.1-3.3
	c-7.5-10.1-11.6-22.3-11.6-34.9v-0.2c0-8.8,7.2-15.9,16-15.9c2.8,0,5.5,0.7,7.9,2.1l0,0c18.1,10.6,29.3,30,29.3,51
	c0,6.3-3.7,12-9.5,14.5c-2,0.9-3.3,2.9-3.3,5.1v30.6c0,2,1.1,3.8,2.8,4.8l30.4,17.5c0.8,0.5,1.8,0.7,2.8,0.7c1,0,2-0.2,2.8-0.7
	l99.7-57.5c1.7-1,2.8-2.8,2.9-4.8v-35.1c0-2-1.1-3.8-2.9-4.8c-1.8-1-3.9-1-5.7,0l-23,13.2c-1,0.6-1.8,1.5-2.3,2.6
	c-4.9,11.5-13.5,21.1-24.3,27.4c-0.1,0.1-0.2,0.1-0.3,0.2c-7.6,4.4-17.4,1.8-21.8-5.9c-1.4-2.4-2.1-5.1-2.1-7.9v-0.2
	C320.9,323.8,332.1,304.5,350.2,294z M292.1,403.1L272.7,392v-24.1c7.9-4.9,12.7-13.6,12.8-22.9c0-25-13.3-48-34.9-60.6l0,0
	c-13-7.4-29.5-2.9-36.9,10c-2.3,4-3.5,8.5-3.6,13.1c0,0,0,0.1,0,0.2c0,14.4,4.4,28.4,12.7,40.1v15.1l-19.4-11.2V249.7l88.8,51.1
	L292.1,403.1z M297.6,291.3l-88.6-51.2l19.3-11.1l20.9,12c0.3,9.3,5.4,17.8,13.5,22.5c21.6,12.5,48.3,12.5,69.9,0l0.2-0.1
	c12.8-7.6,17.1-24.2,9.5-37c-2.3-3.9-5.6-7.2-9.5-9.5c-0.1,0-0.1-0.1-0.2-0.1c-12.4-7.2-26.8-10.3-41.1-9.1l-13.1-7.6l19.3-11.1
	l88.6,51.1L297.6,291.3z M313.4,358.5c7.4,12.8,23.7,17.3,36.6,10.1c0.1-0.1,0.2-0.1,0.3-0.2c12.5-7.2,22.4-18,28.5-31.1l13.2-7.6
	V352l-88.7,51.2V300.8l88.8-51.1V272L371,284c-4-2.1-8.4-3.2-12.8-3.2c-4.7,0-9.3,1.2-13.4,3.6c-21.6,12.5-34.9,35.6-35,60.5v0.3
	C309.8,349.9,311,354.5,313.4,358.5L313.4,358.5z"/>
</svg>
