<svg width="19" height="53" viewBox="0 0 19 53" fill="none" xmlns="http://www.w3.org/2000/svg">
<g filter="url(#filter0_d_293_81)">
<path d="M2 26H15V51H2V26Z" fill="#9D1A58"/>
<path d="M17 8.5C17 13.1944 13.1944 17 8.5 17C3.80558 17 0 13.1944 0 8.5C0 3.80558 3.80558 0 8.5 0C13.1944 0 17 3.80558 17 8.5Z" fill="#EBAA57"/>
<path d="M14.5 26.5V50.5H2.5V26.5H14.5ZM8.5 0.5C12.9183 0.5 16.5 4.08172 16.5 8.5C16.5 12.9183 12.9183 16.5 8.5 16.5C4.08172 16.5 0.5 12.9183 0.5 8.5C0.5 4.08172 4.08172 0.5 8.5 0.5Z" stroke="black"/>
</g>
<defs>
<filter id="filter0_d_293_81" x="0" y="0" width="19" height="53" filterUnits="userSpaceOnUse" color-interpolation-filters="sRGB">
<feFlood flood-opacity="0" result="BackgroundImageFix"/>
<feColorMatrix in="SourceAlpha" type="matrix" values="0 0 0 0 0 0 0 0 0 0 0 0 0 0 0 0 0 0 127 0" result="hardAlpha"/>
<feOffset dx="2" dy="2"/>
<feComposite in2="hardAlpha" operator="out"/>
<feColorMatrix type="matrix" values="0 0 0 0 0 0 0 0 0 0 0 0 0 0 0 0 0 0 1 0"/>
<feBlend mode="normal" in2="BackgroundImageFix" result="effect1_dropShadow_293_81"/>
<feBlend mode="normal" in="SourceGraphic" in2="effect1_dropShadow_293_81" result="shape"/>
</filter>
</defs>
</svg>
